<?xml version="1.0" standalone="no"?>
<svg xmlns:xlink="http://www.w3.org/1999/xlink" id="wave" style="transform:rotate(0deg); transition: 0.3s" viewBox="0 0 1440 490" version="1.1" xmlns="http://www.w3.org/2000/svg"><defs><linearGradient id="sw-gradient-0" x1="0" x2="0" y1="1" y2="0"><stop stop-color="rgba(147.509, 183.18, 187.066, 1)" offset="0%"/><stop stop-color="rgba(246.263, 246.263, 246.263, 1)" offset="100%"/></linearGradient></defs><path style="transform:translate(0, 0px); opacity:1" fill="url(#sw-gradient-0)" d="M0,294L48,318.5C96,343,192,392,288,400.2C384,408,480,376,576,334.8C672,294,768,245,864,261.3C960,278,1056,359,1152,351.2C1248,343,1344,245,1440,228.7C1536,212,1632,278,1728,318.5C1824,359,1920,376,2016,326.7C2112,278,2208,163,2304,163.3C2400,163,2496,278,2592,334.8C2688,392,2784,392,2880,383.8C2976,376,3072,359,3168,367.5C3264,376,3360,408,3456,416.5C3552,425,3648,408,3744,334.8C3840,261,3936,131,4032,138.8C4128,147,4224,294,4320,326.7C4416,359,4512,278,4608,236.8C4704,196,4800,196,4896,204.2C4992,212,5088,229,5184,269.5C5280,310,5376,376,5472,392C5568,408,5664,376,5760,318.5C5856,261,5952,180,6048,179.7C6144,180,6240,261,6336,318.5C6432,376,6528,408,6624,416.5C6720,425,6816,408,6864,400.2L6912,392L6912,490L6864,490C6816,490,6720,490,6624,490C6528,490,6432,490,6336,490C6240,490,6144,490,6048,490C5952,490,5856,490,5760,490C5664,490,5568,490,5472,490C5376,490,5280,490,5184,490C5088,490,4992,490,4896,490C4800,490,4704,490,4608,490C4512,490,4416,490,4320,490C4224,490,4128,490,4032,490C3936,490,3840,490,3744,490C3648,490,3552,490,3456,490C3360,490,3264,490,3168,490C3072,490,2976,490,2880,490C2784,490,2688,490,2592,490C2496,490,2400,490,2304,490C2208,490,2112,490,2016,490C1920,490,1824,490,1728,490C1632,490,1536,490,1440,490C1344,490,1248,490,1152,490C1056,490,960,490,864,490C768,490,672,490,576,490C480,490,384,490,288,490C192,490,96,490,48,490L0,490Z"/></svg>