<?xml version="1.0" standalone="no"?>
<!DOCTYPE svg PUBLIC "-//W3C//DTD SVG 20010904//EN"
 "http://www.w3.org/TR/2001/REC-SVG-20010904/DTD/svg10.dtd">
<svg version="1.0" xmlns="http://www.w3.org/2000/svg"
 width="452.000000pt" height="452.000000pt" viewBox="0 0 452.000000 452.000000"
 preserveAspectRatio="xMidYMid meet">
<metadata>
Created by potrace 1.14, written by Peter Selinger 2001-2017
</metadata>
<g transform="translate(0.000000,452.000000) scale(0.100000,-0.100000)"
fill="#000000" stroke="none">
<path d="M2220 4053 c-462 -20 -895 -212 -1215 -538 -549 -560 -682 -1391
-333 -2090 97 -195 199 -337 347 -485 277 -275 607 -442 1001 -505 133 -22
394 -22 542 -1 537 77 994 380 1288 855 67 108 122 223 112 233 -7 7 -282 158
-288 158 -2 0 -24 -41 -49 -91 -288 -570 -808 -890 -1405 -865 -212 9 -348 32
-515 89 -540 184 -911 620 -1016 1194 -28 153 -31 438 -5 583 74 419 257 755
550 1008 324 280 713 422 1166 425 96 1 192 -2 213 -6 24 -5 37 -5 33 1 -11
19 -284 41 -426 35z"/>
<path d="M1466 4014 c-22 -22 -20 -50 6 -68 19 -13 25 -14 43 -2 29 19 31 51
3 70 -28 20 -33 20 -52 0z m49 -34 c0 -22 -39 -19 -43 3 -3 15 1 18 20 15 12
-2 23 -10 23 -18z"/>
<path d="M1385 3976 c-19 -14 -19 -16 -2 -50 19 -41 26 -43 58 -17 l22 18 -22
32 c-25 35 -30 37 -56 17z m31 -30 c16 -17 18 -26 4 -26 -5 0 -14 9 -20 20
-12 23 -5 26 16 6z"/>
<path d="M1337 3943 c-4 -3 -7 -14 -7 -24 0 -15 -6 -17 -30 -12 -35 6 -36 2
-13 -38 20 -33 38 -39 30 -9 -4 15 0 20 14 20 10 0 19 5 19 11 0 8 5 7 15 -1
24 -20 27 -6 8 29 -18 32 -25 36 -36 24z"/>
<path d="M1218 3879 c-21 -12 -24 -49 -6 -67 18 -18 56 -14 68 7 12 24 4 48
-21 61 -21 12 -20 12 -41 -1z m47 -39 c0 -22 -39 -19 -43 3 -3 15 1 18 20 15
12 -2 23 -10 23 -18z"/>
<path d="M1871 3814 c-50 -35 -76 -144 -50 -211 14 -39 57 -81 89 -88 56 -12
109 28 134 102 33 97 -27 213 -111 213 -21 0 -49 -7 -62 -16z"/>
<path d="M1131 3810 c-1 -8 8 -26 18 -40 17 -21 22 -23 45 -12 14 6 26 16 26
22 0 7 -6 7 -20 0 -17 -9 -24 -6 -45 17 -16 18 -24 23 -24 13z"/>
<path d="M1078 3779 c-36 -21 -16 -79 27 -79 43 0 59 44 27 73 -21 19 -30 20
-54 6z m42 -24 c13 -16 6 -35 -15 -35 -18 0 -28 17 -21 35 7 19 20 19 36 0z"/>
<path d="M2101 3748 c-38 -40 -41 -150 -5 -189 24 -27 70 -25 89 5 65 99 -10
264 -84 184z"/>
<path d="M998 3705 c-10 -22 -9 -29 10 -47 18 -19 25 -20 47 -10 14 6 25 19
25 28 0 15 -2 15 -20 -1 -20 -18 -21 -18 -38 -1 -16 16 -16 18 1 30 21 16 22
26 2 26 -9 0 -21 -11 -27 -25z"/>
<path d="M2243 3664 c-23 -36 -23 -117 2 -144 25 -28 61 -26 82 6 20 31 19
108 -3 142 -20 31 -59 29 -81 -4z"/>
<path d="M923 3643 c-29 -20 -29 -34 0 -61 27 -26 57 -31 37 -7 -10 12 -10 18
1 31 12 15 11 16 -9 10 -24 -8 -29 3 -10 22 18 18 5 21 -19 5z"/>
<path d="M2371 3586 c-21 -26 -25 -83 -7 -111 32 -49 86 -21 86 43 0 65 -48
105 -79 68z"/>
<path d="M855 3570 c-15 -17 -16 -24 -7 -45 11 -25 34 -31 66 -19 23 9 21 61
-3 74 -27 14 -35 13 -56 -10z m55 -26 c0 -19 -28 -30 -42 -16 -8 8 -8 15 1 26
14 17 41 10 41 -10z"/>
<path d="M3288 3505 c-71 -48 -117 -161 -97 -237 11 -42 33 -58 80 -58 25 0
42 11 79 48 79 78 100 192 47 250 -27 29 -64 28 -109 -3z"/>
<path d="M2472 3498 c-7 -7 -12 -28 -12 -48 0 -66 50 -84 70 -25 10 30 9 40
-4 60 -18 27 -36 31 -54 13z"/>
<path d="M2957 3499 c-69 -41 -64 -218 9 -251 20 -10 29 -8 52 9 60 44 67 170
12 225 -30 30 -45 33 -73 17z"/>
<path d="M790 3480 c0 -12 -7 -20 -17 -20 -10 0 -30 -18 -45 -39 -32 -44 -34
-53 -14 -45 8 3 26 -2 41 -12 35 -23 43 -10 11 18 -19 16 -25 29 -21 41 8 20
55 23 73 5 20 -20 22 -4 4 35 -19 40 -32 47 -32 17z"/>
<path d="M2038 3488 c-72 -9 -108 -27 -146 -74 -96 -117 -19 -234 235 -360
154 -75 173 -95 173 -181 0 -74 -28 -136 -131 -294 -145 -223 -161 -274 -116
-360 44 -83 171 -150 255 -134 118 22 185 110 199 262 7 75 -7 84 -26 16 -32
-121 -125 -172 -222 -123 -71 37 -95 107 -68 205 6 22 43 108 82 190 64 134
72 157 75 221 5 94 -13 127 -125 235 -119 113 -145 149 -147 200 -2 81 86 122
216 99 64 -11 148 -33 194 -50 24 -9 24 -10 8 -35 -14 -22 -15 -32 -5 -64 14
-50 43 -85 81 -101 26 -11 33 -10 50 5 23 21 25 53 6 98 -14 36 -69 87 -92 87
-7 0 -37 15 -66 34 -158 100 -298 141 -430 124z"/>
<path d="M2681 3424 c-26 -33 -26 -76 -2 -130 19 -42 63 -84 87 -84 8 0 23 9
34 20 40 40 19 156 -38 200 -34 27 -57 25 -81 -6z"/>
<path d="M680 3351 c0 -14 60 -54 68 -46 4 4 -6 18 -23 31 -32 25 -45 30 -45
15z"/>
<path d="M650 3310 c-16 -29 -3 -43 32 -36 26 5 29 4 18 -9 -7 -9 -10 -18 -7
-22 10 -9 37 18 37 37 0 21 -29 35 -44 20 -15 -15 -30 -12 -17 4 8 9 8 16 2
20 -6 4 -15 -3 -21 -14z"/>
<path d="M606 3238 c-15 -20 -14 -23 19 -45 42 -28 48 -29 40 -3 -5 15 0 23
17 30 l23 9 -22 7 c-13 3 -23 10 -23 15 0 18 -39 8 -54 -13z m44 -8 c0 -5 -7
-10 -16 -10 -8 0 -12 5 -9 10 3 6 10 10 16 10 5 0 9 -4 9 -10z"/>
<path d="M565 3171 l-15 -30 40 -21 39 -20 16 30 c17 34 11 38 -18 13 -19 -17
-19 -17 -13 5 8 23 -9 32 -17 10 -2 -7 -8 -10 -12 -6 -4 4 -2 14 4 22 8 9 8
16 2 20 -6 4 -17 -7 -26 -23z"/>
<path d="M2362 3148 c-27 -27 4 -114 49 -139 47 -24 80 20 59 76 -24 63 -77
94 -108 63z"/>
<path d="M2900 3154 c-14 -2 -52 -9 -85 -15 -87 -16 -197 -64 -249 -110 -66
-58 -99 -132 -104 -234 -5 -99 9 -190 45 -288 l27 -72 13 95 c7 52 22 120 33
150 74 196 288 323 381 224 32 -34 31 -92 -3 -165 -33 -73 -72 -125 -172 -234
-144 -157 -222 -264 -286 -390 -12 -25 -24 -32 -70 -42 -30 -6 -74 -12 -97
-12 -23 -1 -70 -8 -104 -17 -89 -23 -313 -23 -395 -1 -34 9 -65 17 -68 17 -17
0 -2 -32 35 -74 74 -83 176 -128 335 -146 115 -12 139 -22 124 -50 -26 -48
-173 -90 -316 -90 -169 0 -263 30 -556 178 -26 13 4 -26 88 -116 271 -289 569
-411 874 -358 181 32 327 93 639 270 143 81 243 127 309 141 17 4 32 9 32 12
0 17 -100 119 -155 159 -128 90 -281 130 -467 121 -60 -3 -108 -2 -108 2 0 20
172 211 273 303 62 56 167 157 233 224 100 100 128 135 159 197 34 69 37 82
33 138 -4 59 -7 65 -50 103 -27 25 -66 48 -99 58 -54 18 -202 30 -249 22z"/>
<path d="M540 3123 c0 -5 7 -17 15 -27 21 -28 19 -37 -9 -30 -13 3 -27 1 -30
-5 -5 -7 10 -11 44 -11 45 0 50 2 41 18 -25 41 -62 75 -61 55z"/>
<path d="M500 3025 c0 -7 9 -17 21 -20 11 -4 18 -9 16 -12 -3 -2 -14 0 -26 6
-13 7 -22 8 -26 1 -3 -6 1 -13 9 -16 22 -9 20 -24 -3 -24 -11 0 -22 -4 -26
-10 -7 -11 46 -40 72 -40 15 0 14 3 -6 19 l-24 18 33 6 c27 6 31 9 20 22 -10
12 -9 15 6 15 16 0 16 2 4 13 -8 7 -27 19 -42 25 -23 9 -28 9 -28 -3z"/>
<path d="M450 2912 c0 -5 11 -14 25 -20 14 -6 25 -19 25 -27 0 -13 -7 -15 -35
-9 -41 7 -46 -2 -9 -17 66 -24 101 41 38 70 -30 13 -44 14 -44 3z"/>
<path d="M467 2748 c-10 -21 -16 -27 -16 -15 -1 20 -17 23 -24 5 -3 -7 -6 -3
-6 10 -1 30 -17 28 -25 -4 -8 -32 -2 -40 41 -49 29 -6 34 -4 43 20 6 15 8 31
4 36 -3 5 2 9 11 9 9 0 13 5 10 10 -11 17 -21 11 -38 -22z"/>
<path d="M380 2662 c0 -53 47 -71 76 -27 16 24 11 51 -7 39 -5 -3 -7 -9 -4
-14 7 -12 -22 -33 -36 -25 -6 4 -9 18 -6 31 3 16 0 24 -9 24 -9 0 -14 -11 -14
-28z"/>
<path d="M360 2602 c0 -5 10 -13 23 -16 22 -6 22 -7 -7 -22 -33 -18 -26 -30
27 -39 24 -5 37 -4 37 4 0 6 -7 11 -15 11 -22 0 -18 15 8 33 12 8 20 17 17 20
-11 10 -90 18 -90 9z"/>
<path d="M378 2498 c-36 -13 -35 -29 3 -50 40 -23 52 -23 37 1 -10 17 -9 23 6
40 19 21 19 21 0 20 -10 0 -31 -5 -46 -11z"/>
<path d="M340 2411 c0 -5 18 -11 41 -13 39 -4 55 2 42 16 -10 9 -83 7 -83 -3z"/>
<path d="M398 2362 c-4 -15 -12 -18 -37 -14 -43 6 -39 -14 4 -22 43 -8 55 -2
55 30 0 28 -15 32 -22 6z"/>
<path d="M400 2290 c0 -16 -7 -20 -35 -20 -47 0 -45 -18 3 -22 l37 -3 -37 -20
c-21 -10 -38 -22 -38 -27 0 -10 55 -38 75 -38 12 0 13 3 4 19 -7 11 -9 26 -4
37 13 32 17 94 6 94 -6 0 -11 -9 -11 -20z"/>
<path d="M373 2100 c-6 -23 -19 -26 -26 -7 -7 21 -19 0 -12 -22 8 -27 29 -27
48 2 l16 22 0 -23 c1 -30 21 -18 21 13 0 12 -7 26 -16 29 -23 9 -25 8 -31 -14z"/>
<path d="M345 2030 c-3 -5 3 -10 14 -10 25 0 27 -13 6 -30 -8 -7 -15 -17 -15
-22 0 -14 73 -5 78 11 3 9 -2 11 -17 6 -27 -8 -27 3 1 32 l21 23 -41 0 c-22 0
-44 -4 -47 -10z"/>
<path d="M366 1934 c-23 -22 -20 -40 10 -63 20 -15 22 -21 10 -21 -9 0 -16 -4
-16 -10 0 -11 24 -13 58 -4 25 7 30 24 7 24 -14 0 -14 2 0 23 13 21 13 25 -1
45 -18 26 -46 28 -68 6z m51 -20 c3 -8 1 -20 -5 -26 -15 -15 -43 8 -35 28 7
19 32 18 40 -2z"/>
<path d="M376 1783 c4 -16 10 -35 15 -43 7 -12 8 -10 9 6 0 17 8 23 35 28 50
10 45 29 -5 21 -26 -4 -40 -3 -40 4 0 6 -5 11 -10 11 -6 0 -8 -11 -4 -27z"/>
<path d="M435 1710 c-16 -16 -26 -32 -24 -34 11 -11 89 -18 89 -8 0 5 -7 13
-16 16 -11 4 -14 13 -10 31 8 33 -4 32 -39 -5z"/>
<path d="M430 1621 c0 -6 11 -11 25 -11 29 0 31 -7 8 -32 -29 -32 -3 -33 29 0
18 17 29 34 26 38 -13 12 -88 17 -88 5z"/>
<path d="M482 1538 c-21 -21 -14 -56 16 -72 15 -8 21 -15 15 -16 -7 0 -13 -7
-13 -15 0 -13 4 -14 20 -5 15 8 20 8 20 -3 0 -7 -5 -18 -12 -25 -21 -21 4 -31
40 -16 36 16 45 39 10 29 -17 -6 -20 -4 -15 9 4 9 10 23 14 32 5 14 2 16 -23
10 -27 -7 -28 -7 -11 12 30 33 15 72 -28 72 -12 0 -26 -5 -33 -12z m54 -19
c10 -17 -23 -46 -37 -32 -7 7 -9 19 -6 27 7 18 33 21 43 5z"/>
<path d="M568 1374 c-33 -18 -38 -38 -6 -29 22 8 22 8 1 -42 -7 -17 12 -16 47
2 35 18 41 40 8 30 -17 -6 -20 -4 -15 9 4 9 10 23 13 31 8 19 -12 19 -48 -1z"/>
<path d="M1372 1283 c-46 -70 -50 -79 -36 -93 13 -13 17 -13 33 8 17 23 18 23
48 5 39 -22 80 -10 103 30 13 24 13 30 0 54 -14 25 -73 73 -90 73 -4 0 -30
-35 -58 -77z m101 -34 c-13 -13 -53 -3 -53 15 0 6 5 17 12 24 10 10 17 8 32
-8 15 -14 17 -23 9 -31z"/>
<path d="M2956 1311 c-8 -12 15 -183 26 -198 15 -19 38 -3 38 27 0 39 43 67
82 52 24 -9 30 -7 38 8 9 16 -1 25 -74 69 -85 52 -101 58 -110 42z m78 -80 c3
-5 -1 -11 -9 -15 -9 -3 -15 0 -15 9 0 16 16 20 24 6z"/>
<path d="M608 1292 c-27 -16 -37 -32 -20 -32 10 0 72 39 72 45 0 10 -26 4 -52
-13z"/>
<path d="M635 1226 c-13 -19 -14 -29 -5 -45 13 -25 23 -26 61 -4 34 20 36 33
11 56 -26 24 -49 21 -67 -7z m51 -7 c9 -16 -12 -33 -31 -25 -14 5 -15 9 -5 21
15 18 26 19 36 4z"/>
<path d="M2826 1224 c-3 -9 -6 -29 -6 -45 0 -34 -5 -35 -49 -8 -35 21 -61 19
-61 -4 0 -7 22 -26 49 -42 30 -18 56 -43 65 -63 20 -40 53 -42 47 -2 -2 14 -4
60 -3 103 1 68 -1 77 -18 77 -10 0 -21 -7 -24 -16z"/>
<path d="M693 1166 c-39 -25 -42 -39 -8 -30 25 6 25 5 14 -20 -17 -37 -4 -44
32 -17 38 28 45 22 25 -18 -25 -47 -21 -54 21 -46 52 10 58 15 31 29 -12 6
-23 18 -24 26 -2 36 -16 50 -41 44 -23 -6 -24 -5 -13 16 18 33 0 41 -37 16z"/>
<path d="M1535 1165 c-42 -41 -30 -80 35 -114 22 -11 43 -21 45 -21 8 0 55 98
55 115 0 8 -8 15 -19 15 -10 0 -24 7 -31 15 -19 22 -58 18 -85 -10z m70 -45
c0 -22 -39 -19 -43 3 -3 15 1 18 20 15 12 -2 23 -10 23 -18z"/>
<path d="M2638 1154 c-6 -5 17 -86 44 -156 10 -28 31 -37 43 -18 3 6 -6 48
-21 95 -20 61 -33 85 -44 85 -9 0 -19 -3 -22 -6z"/>
<path d="M2560 1114 c-6 -14 -13 -43 -16 -65 -4 -22 -10 -42 -14 -44 -4 -3
-26 20 -49 50 -43 57 -58 66 -67 40 -7 -18 101 -165 121 -165 8 0 17 5 21 11
10 17 44 151 44 177 0 31 -28 28 -40 -4z"/>
<path d="M1712 1100 c-42 -40 -19 -120 34 -120 11 0 25 -5 31 -11 17 -17 30
-4 48 51 19 57 15 80 -14 80 -11 0 -23 5 -26 10 -10 17 -50 11 -73 -10z m65
-46 c8 -22 -18 -37 -36 -20 -7 8 -10 19 -7 25 10 16 36 13 43 -5z"/>
<path d="M2034 1075 c-22 -34 -6 -72 36 -88 30 -12 39 -30 19 -42 -5 -4 -19 1
-29 10 -19 17 -50 15 -50 -4 0 -19 44 -51 70 -51 42 0 70 26 70 66 0 32 -4 37
-40 51 -22 9 -40 22 -40 30 0 15 18 17 39 4 18 -12 41 -3 41 15 0 18 -32 34
-69 34 -22 0 -35 -7 -47 -25z"/>
<path d="M2257 1058 c-8 -18 -24 -57 -37 -85 -31 -72 -12 -115 26 -58 22 33
89 36 99 5 7 -23 33 -27 41 -6 3 8 -13 51 -36 95 -48 91 -70 103 -93 49z m47
-63 c3 -9 0 -15 -9 -15 -8 0 -15 7 -15 15 0 8 4 15 9 15 5 0 11 -7 15 -15z"/>
<path d="M850 1009 c0 -8 6 -21 13 -28 10 -11 8 -12 -11 -6 -22 6 -23 5 -17
-17 8 -23 8 -23 -14 -4 -27 24 -36 17 -15 -12 18 -27 32 -27 62 -3 27 24 28
42 2 66 -16 14 -20 15 -20 4z"/>
<path d="M1870 1000 c0 -14 11 -22 40 -30 22 -6 45 -8 50 -5 23 14 7 33 -34
44 -57 14 -56 14 -56 -9z"/>
<path d="M883 934 c-3 -8 -1 -20 6 -27 8 -8 11 -7 11 6 0 9 5 17 10 17 13 0
13 -37 -1 -45 -5 -4 -19 1 -30 11 -15 14 -19 14 -19 3 0 -8 5 -20 12 -27 33
-33 91 16 68 57 -13 25 -48 28 -57 5z"/>
<path d="M950 864 c-6 -14 -10 -34 -10 -44 0 -18 2 -18 45 -3 47 16 60 33 24
33 -12 0 -23 8 -26 20 -7 27 -22 25 -33 -6z"/>
<path d="M1023 794 c-33 -14 -52 -34 -33 -34 6 0 20 5 32 11 26 14 31 8 19
-25 -8 -20 -7 -26 3 -26 12 0 26 41 26 76 0 17 -5 17 -47 -2z"/>
<path d="M1100 764 c0 -4 8 -13 18 -20 16 -12 15 -14 -7 -38 -26 -28 -22 -48
4 -26 31 26 38 50 19 71 -17 19 -34 25 -34 13z"/>
<path d="M1156 704 c-7 -18 -8 -74 -1 -74 12 0 75 35 75 42 0 4 -9 8 -21 8
-12 0 -23 8 -26 20 -6 24 -19 26 -27 4z"/>
<path d="M1225 650 c-3 -5 -1 -19 5 -31 11 -19 10 -20 -9 -14 -26 8 -28 -11
-3 -24 28 -15 46 2 38 35 -6 23 -5 26 7 16 18 -15 30 -3 16 15 -13 15 -45 17
-54 3z"/>
<path d="M1310 578 l-20 -33 21 -17 c30 -25 37 -23 56 18 17 34 17 36 -2 50
-27 20 -33 18 -55 -18z m50 -6 c0 -11 -22 -32 -33 -32 -5 0 -4 6 2 13 6 8 8
17 4 20 -3 4 1 7 10 7 10 0 17 -4 17 -8z"/>
<path d="M1375 540 c-19 -36 -12 -54 15 -40 26 14 27 13 34 -15 9 -34 19 -31
40 11 18 40 14 59 -7 29 -12 -16 -14 -16 -20 -2 -4 11 -12 14 -23 10 -13 -5
-15 -2 -9 15 10 33 -12 27 -30 -8z"/>
<path d="M1477 495 c-20 -41 -20 -45 -7 -45 10 0 40 52 40 70 0 21 -17 9 -33
-25z"/>
<path d="M1534 495 c17 -13 17 -18 6 -45 -17 -41 -6 -50 14 -11 20 38 20 57 0
65 -28 11 -39 6 -20 -9z"/>
</g>
</svg>
